<?xml version="1.0" encoding="utf-8"?>
<!DOCTYPE svg PUBLIC "-//W3C//DTD SVG 1.1//EN" "http://www.w3.org/Graphics/SVG/1.1/DTD/svg11.dtd">
<svg version="1.1" id="logo" xmlns="http://www.w3.org/2000/svg" xmlns:xlink="http://www.w3.org/1999/xlink" x="0px" y="0px"
	 width="31.842px" height="11.04px" viewBox="4.079 14.48 31.842 11.04" enable-background="new 4.079 14.48 31.842 11.04"
	 xml:space="preserve">
<g>
	<g>
		<g>
			<g>
				<polygon fill="#FFFFFF" points="20.479,21.102 23.211,21.102 23.357,20.614 20.627,20.614 				"/>
				<polygon fill="#FFFFFF" points="23.695,19.944 24.244,18.083 23.689,18.083 23.289,19.449 22.598,19.449 23.164,17.526 
					22.646,17.526 22.079,19.449 21.389,19.449 21.79,18.083 21.271,18.083 20.725,19.944 				"/>
				<path fill="#FFFFFF" d="M18.6,20.164c0.916-0.707,2.085-1.744,2.815-2.635l-0.654,0.006c-0.547,0.655-1.126,1.189-1.885,1.79
					L18.6,20.164z"/>
				<path fill="#FFFFFF" d="M23.259,22.441c0,0-0.598,0.416-0.987,0.64l0.386-1.279c0,0-2.276-0.015-2.316,0
					c-0.144,0.681-0.291,1.39-0.94,1.886c-0.088,0.328-0.131,0.479-0.259,0.859c0.708-0.595,1.179-0.799,1.551-2.074l0.056-0.184
					h1.21l-0.201,0.671c-0.068,0.306-0.433,0.64-0.433,0.64l0.286,0.426c0.201-0.142,1.463-0.896,1.463-0.896L23.259,22.441z"/>
				<path fill="#FFFFFF" d="M20.706,19.529h-0.555c-0.667,0.817-1.317,1.468-1.985,2.052l-0.25,0.815
					c0,0.008-0.001,0.016-0.001,0.021c0.123-0.103,0.331-0.278,0.547-0.464c0.223-0.202,0.381-0.346,0.474-0.428l-0.932,3.106h0.554
					l1.169-3.897C20.037,20.392,20.47,19.869,20.706,19.529z"/>
			</g>
			<path fill="#FFFFFF" d="M25.27,18.847c0.31-0.422,0.574-0.938,0.748-1.319h-0.539c-0.617,1.136-0.883,1.634-1.651,2.535
				c-0.081,0.293-0.147,0.529-0.271,0.919c0.187-0.157,0.438-0.369,0.582-0.549c-0.13,0.812-0.13,1.543-0.002,2.193
				c-0.387,0.447-0.468,0.592-1.422,1.241c-0.097,0.324-0.133,0.416-0.271,0.828c0.856-0.627,1.459-1.137,1.807-1.521
				c0.229,0.549,0.746,1.107,1.104,1.533c0.119-0.311,0.133-0.344,0.246-0.65c-0.477-0.486-0.807-1.115-0.873-1.431
				c0.615-0.752,1.207-1.837,1.771-3.26h0.481l0.156-0.518L25.27,18.847L25.27,18.847z M24.63,22.016
				c-0.099-0.67-0.026-1.521,0.216-2.559c0.027-0.02,0.096-0.092,0.096-0.092h1.002C25.527,20.443,25.091,21.325,24.63,22.016z"/>
			<g>
				<path fill="#FFFFFF" d="M28.887,17.521h0.622l-0.599,2.02h0.795l-0.155,0.518h-0.795l-1.378,4.6h-0.623l1.379-4.6h-0.828
					l0.154-0.518h0.829L28.887,17.521z M28.621,22.464h4.285l0.128-0.426h0.622l-0.127,0.426h1.348L34.74,22.92h-1.35l-0.254,0.854
					c-0.139,0.527-0.563,0.793-1.275,0.793c-0.414,0-0.857-0.012-0.857-0.012s0.089-0.281,0.15-0.519
					c0.347,0.021,0.678,0.011,0.794,0.011c0.346,0,0.54-0.111,0.584-0.335l0.237-0.792h-4.285L28.621,22.464z M29.596,23.327
					l0.545-0.276c0.305,0.28,0.58,0.564,0.83,0.855l-0.563,0.24C30.191,23.885,29.922,23.611,29.596,23.327z M34.779,18.291h1.142
					l-0.146,0.487h-2.662l-0.146,0.487h2.145l-0.832,2.782h-0.588l0.129-0.438h-1.555l-0.127,0.437H31.55l0.127-0.437h-1.59
					l-0.134,0.445h-0.588l0.837-2.792h2.178l0.146-0.487h-2.592l0.146-0.487h2.592l0.235-0.771h0.587l-0.235,0.771h1.418
					L34.779,18.291L34.779,18.291z M30.37,20.667l-0.146,0.487h1.59l0.146-0.487H30.37z M30.652,19.723l-0.146,0.487h1.592
					l0.146-0.487H30.652z M32.547,20.667L32.4,21.152h1.556l0.146-0.486L32.547,20.667L32.547,20.667z M34.385,19.723H32.83
					l-0.146,0.487h1.558L34.385,19.723z"/>
			</g>
		</g>
		<polygon fill="#FFFFFF" points="35,18.307 34.447,18.307 34.637,17.689 35.188,17.689 		"/>
	</g>
	<g>
		<path fill="#FFFFFF" d="M5.081,22.072c0,1.587,2.066,2.873,4.615,2.873c2.549,0,4.615-1.286,4.615-2.873
			c0-1.587-2.066-2.874-4.615-2.874C7.147,19.198,5.081,20.485,5.081,22.072"/>
		<path fill="#D52B2A" d="M14.316,19.795c-0.191-0.058-0.324-0.097-0.223-0.349c0.218-0.547,0.24-1.02,0.004-1.356
			c-0.442-0.632-1.653-0.598-3.041-0.017c0,0-0.435,0.191-0.323-0.155c0.213-0.687,0.181-1.261-0.151-1.593
			c-0.753-0.753-2.755,0.028-4.472,1.744c-1.285,1.286-2.031,2.649-2.031,3.826c0,2.254,2.89,3.625,5.718,3.625
			c3.706,0,6.172-2.152,6.172-3.862C15.969,20.624,15.099,20.038,14.316,19.795z M9.804,24.712
			c-2.256,0.222-4.203-0.797-4.351-2.278c-0.146-1.479,1.564-2.862,3.82-3.083c2.257-0.223,4.204,0.796,4.351,2.277
			C13.771,23.107,12.061,24.489,9.804,24.712z"/>
		<path fill="#E89112" d="M16.778,15.671c-0.896-0.992-2.216-1.371-3.435-1.112l0,0c-0.282,0.061-0.462,0.338-0.401,0.619
			c0.06,0.282,0.337,0.462,0.619,0.402c0.867-0.184,1.806,0.085,2.441,0.79c0.635,0.705,0.809,1.667,0.536,2.509l0,0
			c-0.089,0.274,0.062,0.568,0.336,0.657c0.274,0.089,0.569-0.062,0.657-0.335c0,0,0-0.001,0-0.002
			C17.915,18.014,17.673,16.663,16.778,15.671"/>
		<path fill="#E89112" d="M15.403,16.911c-0.436-0.483-1.079-0.667-1.673-0.541c-0.243,0.052-0.397,0.291-0.345,0.534
			c0.052,0.242,0.29,0.397,0.532,0.345l0,0c0.291-0.062,0.604,0.028,0.817,0.264c0.214,0.236,0.271,0.559,0.18,0.841l0,0
			c-0.076,0.236,0.054,0.489,0.289,0.565c0.236,0.076,0.489-0.053,0.565-0.289C15.956,18.052,15.84,17.395,15.403,16.911"/>
		<g>
			<path fill="#040000" d="M10.029,20.488c-1.074-0.279-2.287,0.255-2.753,1.202c-0.476,0.965-0.017,2.035,1.068,2.388
				c1.123,0.36,2.448-0.193,2.908-1.234C11.707,21.823,11.141,20.775,10.029,20.488z M9.21,22.952
				c-0.219,0.348-0.686,0.501-1.038,0.34c-0.347-0.158-0.449-0.563-0.231-0.901c0.216-0.339,0.668-0.488,1.017-0.343
				C9.312,22.199,9.424,22.602,9.21,22.952z M9.929,22.029c-0.079,0.135-0.254,0.199-0.391,0.144
				c-0.134-0.056-0.176-0.206-0.1-0.339c0.078-0.132,0.246-0.195,0.38-0.145C9.955,21.741,10.004,21.895,9.929,22.029z"/>
		</g>
	</g>
</g>
</svg>
